<svg width="675" height="586" viewBox="0 0 675 586" fill="none" xmlns="http://www.w3.org/2000/svg">
<path fill-rule="evenodd" clip-rule="evenodd" d="M320.011 8.76643C362.978 10.4286 408.321 0.988903 446.897 19.9842C485.419 38.9523 499.668 86.5367 532.977 113.632C576.279 148.857 655.758 149.725 672.03 203.121C687.795 254.851 623.846 297.897 604.522 348.405C588.013 391.553 592.866 442.07 566.179 479.78C539.107 518.036 498.274 546.476 453.829 561.345C410.99 575.676 365.081 559.085 320.011 562.134C271.529 565.412 222.389 597.873 177.182 580.055C132.319 562.372 112.786 510.162 86.156 469.96C61.2013 432.287 38.6779 393.894 25.2802 350.737C11.2416 305.517 -10.6888 256.106 6.01097 211.799C22.9179 166.942 80.7582 153.868 112.891 118.294C142.754 85.2324 148.922 30.8082 188.307 9.98095C227.61 -10.8032 275.583 7.04781 320.011 8.76643Z" fill="#0C5A6B" fill-opacity="0.6"/>
</svg>
