<svg width="638" height="696" viewBox="0 0 638 696" fill="none" xmlns="http://www.w3.org/2000/svg">
<path fill-rule="evenodd" clip-rule="evenodd" d="M317.886 4.51091C384.651 -9.23328 456.43 9.49403 513.848 46.2321C571.319 83.0046 617.684 140.537 634.016 206.783C649.332 268.911 610.199 328.571 598.983 391.57C588.247 451.875 600.852 516.557 569.499 569.177C535.37 626.456 484.716 685.406 418.631 694.258C352.771 703.08 302.875 637.272 240.946 613.187C186.02 591.826 114.13 605.69 75.7969 560.926C37.4706 516.17 60.9839 447.541 49.5906 389.729C37.3613 327.676 -18.7517 266.934 6.42334 208.914C31.5316 151.047 114.98 152.095 167.717 117.486C221.17 82.4071 255.264 17.4022 317.886 4.51091Z" fill="#0C5A6B" fill-opacity="0.5"/>
</svg>
