<svg width="60" height="60" viewBox="0 0 60 60" fill="none" xmlns="http://www.w3.org/2000/svg">
<path d="M14.375 12.97V42.1875C14.375 44.4253 15.2639 46.5714 16.8463 48.1537C18.4286 49.7361 20.5747 50.625 22.8125 50.625H42.03C41.6089 51.5565 40.9281 52.3468 40.0692 52.901C39.2103 53.4553 38.2097 53.7501 37.1875 53.75H22.8125C19.7459 53.75 16.805 52.5318 14.6366 50.3634C12.4682 48.195 11.25 45.2541 11.25 42.1875V17.8125C11.2498 16.7902 11.5445 15.7896 12.0988 14.9307C12.6531 14.0717 13.4434 13.3909 14.375 12.97ZM32.1962 6.25C32.8941 6.2499 33.5851 6.38729 34.2298 6.65432C34.8745 6.92134 35.4603 7.31277 35.9538 7.80625L47.1938 19.0463C47.6872 19.5397 48.0787 20.1255 48.3457 20.7702C48.6127 21.4149 48.7501 22.1059 48.75 22.8038V42.1875C48.75 43.5965 48.1903 44.9477 47.194 45.944C46.1977 46.9403 44.8465 47.5 43.4375 47.5H22.8125C21.4035 47.5 20.0523 46.9403 19.056 45.944C18.0597 44.9477 17.5 43.5965 17.5 42.1875V11.5625C17.5 10.1535 18.0597 8.80228 19.056 7.806C20.0523 6.80971 21.4035 6.25 22.8125 6.25H32.1962V6.25ZM31.25 9.375H22.8125C22.2323 9.375 21.6759 9.60547 21.2657 10.0157C20.8555 10.4259 20.625 10.9823 20.625 11.5625V42.1875C20.625 43.3963 21.605 44.375 22.8125 44.375H43.4375C44.0177 44.375 44.5741 44.1445 44.9843 43.7343C45.3945 43.3241 45.625 42.7677 45.625 42.1875V23.75H36.5625C35.1981 23.75 33.886 23.2251 32.8982 22.284C31.9103 21.3429 31.3224 20.0578 31.2562 18.695L31.25 18.4375V9.375ZM44.3525 20.625L34.375 10.6475V18.4375C34.375 18.9867 34.5817 19.5158 34.9538 19.9196C35.326 20.3235 35.8364 20.5726 36.3838 20.6175L36.5625 20.625H44.3525Z" fill="#D9D9D9"/>
</svg>
